<svg xmlns="http://www.w3.org/2000/svg" xmlns:xlink="http://www.w3.org/1999/xlink" width="50" zoomAndPan="magnify" viewBox="0 0 37.5 37.499999" height="50" preserveAspectRatio="xMidYMid meet" version="1.0"><defs><clipPath id="fdb7c742df"><path d="M 0 1.496094 L 37.007812 1.496094 L 37.007812 31 L 0 31 Z M 0 1.496094 " clip-rule="nonzero"/></clipPath><clipPath id="965250a991"><path d="M 17 34 L 19 34 L 19 35.542969 L 17 35.542969 Z M 17 34 " clip-rule="nonzero"/></clipPath><clipPath id="c0617e2dc4"><path d="M 20 34 L 23 34 L 23 35.542969 L 20 35.542969 Z M 20 34 " clip-rule="nonzero"/></clipPath></defs><g clip-path="url(#fdb7c742df)"><path fill="#ffbd59" d="M 5.644531 22.78125 C 4.671875 22.203125 3.71875 21.863281 2.777344 21.765625 C 3.054688 21.851562 3.476562 22.304688 4.050781 23.121094 C 3.261719 23.085938 2.621094 23.261719 2.117188 23.644531 C 3.886719 23.949219 5.324219 24.808594 6.421875 26.214844 C 6.476562 26.464844 6.644531 26.671875 6.878906 26.773438 C 7.113281 26.878906 7.378906 26.867188 7.601562 26.742188 C 7.601562 26.742188 8.042969 26.90625 8.921875 27.238281 C 9.03125 27.417969 9.214844 27.53125 9.417969 27.554688 C 9.578125 27.199219 9.75 26.847656 9.925781 26.507812 C 9.828125 25.988281 9.75 25.464844 9.683594 24.941406 C 9.070312 25.167969 8.410156 25.351562 7.804688 25.371094 C 7.023438 25.398438 6.308594 25.125 5.953125 24.386719 C 5.949219 24.382812 5.949219 24.375 5.945312 24.371094 C 5.707031 23.832031 5.613281 23.300781 5.644531 22.78125 Z M 14.25 28.324219 C 14.476562 28.351562 14.710938 28.371094 14.960938 28.398438 C 14.988281 28.78125 14.535156 29.402344 13.597656 30.261719 C 14.347656 30.21875 15.0625 29.984375 15.746094 29.570312 C 15.722656 29.730469 15.558594 29.980469 15.25 30.324219 C 15.722656 30.285156 16.203125 30.078125 16.691406 29.714844 C 16.769531 29.492188 16.960938 29.328125 17.203125 29.28125 C 17.207031 29.28125 17.210938 29.28125 17.214844 29.28125 C 17.289062 29.265625 17.367188 29.261719 17.4375 29.273438 C 17.421875 29.253906 17.40625 29.242188 17.394531 29.21875 C 17.390625 29.214844 17.386719 29.210938 17.382812 29.207031 C 17.363281 29.183594 17.347656 29.160156 17.328125 29.136719 C 17.3125 29.113281 17.273438 29.082031 17.25 29.066406 C 17.082031 28.949219 16.984375 28.78125 16.96875 28.574219 C 16.96875 28.542969 16.953125 28.511719 16.9375 28.484375 C 16.914062 28.445312 16.882812 28.410156 16.851562 28.371094 C 16.722656 28.21875 16.667969 28.035156 16.699219 27.832031 C 16.730469 27.644531 16.828125 27.488281 16.988281 27.378906 C 17.054688 27.1875 17.195312 27.042969 17.382812 26.976562 C 17.300781 26.941406 17.230469 26.898438 17.164062 26.835938 C 17.132812 26.808594 17.089844 26.765625 17.046875 26.753906 C 16.816406 26.6875 16.648438 26.519531 16.585938 26.292969 C 16.582031 26.289062 16.582031 26.289062 16.578125 26.289062 C 16.472656 26.269531 16.386719 26.226562 16.300781 26.160156 C 16.289062 26.152344 16.257812 26.132812 16.242188 26.132812 C 16.242188 26.132812 16.238281 26.132812 16.238281 26.132812 C 16.234375 26.132812 16.234375 26.132812 16.230469 26.132812 C 16.222656 26.144531 16.207031 26.160156 16.199219 26.167969 C 16.152344 26.21875 16.113281 26.25 16.054688 26.285156 C 16.011719 26.308594 15.980469 26.371094 15.960938 26.417969 C 15.957031 26.441406 15.949219 26.472656 15.941406 26.492188 C 15.886719 26.691406 15.761719 26.84375 15.578125 26.929688 C 15.5625 26.933594 15.535156 26.945312 15.523438 26.957031 C 15.445312 27.050781 15.355469 27.113281 15.242188 27.15625 C 15.183594 27.175781 15.125 27.203125 15.070312 27.234375 C 15.035156 27.261719 14.929688 27.320312 14.894531 27.367188 C 14.878906 27.492188 14.824219 27.597656 14.738281 27.695312 C 14.695312 27.746094 14.648438 27.789062 14.597656 27.828125 C 14.578125 27.847656 14.535156 27.886719 14.515625 27.910156 C 14.480469 28.085938 14.386719 28.226562 14.25 28.324219 Z M 16.652344 30.046875 C 16.578125 30.132812 16.480469 30.230469 16.371094 30.328125 C 16.425781 30.332031 16.480469 30.332031 16.535156 30.328125 C 16.5625 30.242188 16.605469 30.167969 16.664062 30.101562 C 16.660156 30.082031 16.65625 30.066406 16.652344 30.046875 Z M 17.878906 30.332031 C 18.386719 30.238281 18.785156 30.011719 19.066406 29.644531 C 19.394531 29.875 19.699219 30.042969 19.988281 30.152344 C 19.988281 30.148438 19.992188 30.140625 19.992188 30.136719 C 19.992188 30.132812 19.992188 30.128906 19.992188 30.121094 C 19.953125 29.851562 20.058594 29.597656 20.289062 29.453125 C 20.324219 29.425781 20.363281 29.390625 20.398438 29.359375 C 20.472656 29.292969 20.546875 29.25 20.644531 29.222656 C 20.664062 29.214844 20.734375 29.183594 20.746094 29.15625 C 20.726562 29.140625 20.667969 29.121094 20.648438 29.117188 C 20.59375 29.101562 20.558594 29.105469 20.511719 29.132812 C 20.480469 29.15625 20.445312 29.183594 20.410156 29.210938 C 20.253906 29.324219 20.078125 29.363281 19.886719 29.328125 C 19.851562 29.320312 19.808594 29.316406 19.773438 29.316406 C 19.636719 29.320312 19.515625 29.289062 19.402344 29.214844 C 19.394531 29.210938 19.367188 29.207031 19.355469 29.210938 C 19.332031 29.210938 19.285156 29.222656 19.253906 29.226562 C 19.113281 29.246094 18.984375 29.230469 18.859375 29.167969 C 18.800781 29.140625 18.703125 29.136719 18.632812 29.140625 C 18.601562 29.144531 18.527344 29.15625 18.503906 29.191406 C 18.378906 29.386719 18.183594 29.496094 17.957031 29.503906 C 17.914062 29.503906 17.878906 29.503906 17.839844 29.496094 C 17.851562 29.507812 17.863281 29.519531 17.871094 29.53125 C 18.027344 29.742188 18.054688 30 17.9375 30.234375 C 17.917969 30.269531 17.902344 30.304688 17.878906 30.332031 Z M 24.671875 29.84375 C 24.738281 29.832031 24.792969 29.824219 24.847656 29.808594 C 24.820312 29.792969 24.789062 29.777344 24.757812 29.765625 C 24.734375 29.792969 24.703125 29.820312 24.671875 29.84375 Z M 26.636719 27.507812 C 26.769531 27.464844 26.898438 27.417969 27.03125 27.371094 C 27.175781 27.476562 27.367188 27.503906 27.535156 27.445312 C 27.707031 27.378906 27.835938 27.238281 27.878906 27.0625 C 28.003906 27.171875 28.171875 27.207031 28.324219 27.167969 C 28.484375 27.125 28.609375 27.011719 28.667969 26.855469 C 28.796875 26.960938 28.976562 26.976562 29.125 26.90625 C 29.277344 26.832031 29.375 26.675781 29.378906 26.511719 C 29.378906 26.511719 29.714844 26.371094 30.394531 26.085938 C 30.734375 26.453125 31.164062 26.257812 31.691406 25.503906 C 32.609375 24.433594 33.945312 23.695312 35.695312 23.289062 C 35.609375 23.019531 35.066406 22.792969 34.054688 22.617188 C 34.054688 22.617188 34.339844 22.253906 34.90625 21.527344 C 33.332031 21.613281 31.785156 22.371094 30.265625 23.796875 C 29.695312 23.742188 29.019531 23.917969 28.234375 24.324219 C 28.09375 24.230469 27.953125 24.179688 27.816406 24.175781 C 27.40625 24.453125 26.96875 24.710938 26.5 24.933594 C 26.59375 25.613281 26.589844 26.515625 26.589844 26.980469 C 26.601562 27.15625 26.617188 27.332031 26.636719 27.507812 Z M 31.976562 18.761719 C 32.128906 18.691406 32.261719 18.621094 32.375 18.542969 C 32.289062 18.523438 32.203125 18.503906 32.117188 18.480469 L 32.023438 18.660156 C 32.007812 18.691406 31.992188 18.730469 31.976562 18.761719 Z M 32.34375 18.042969 C 32.761719 17.910156 33.144531 17.726562 33.484375 17.5 C 33.234375 17.492188 32.914062 17.339844 32.523438 17.054688 C 33.140625 16.894531 33.769531 16.570312 34.414062 16.074219 C 34.042969 16.058594 33.664062 15.925781 33.28125 15.6875 C 34.40625 15.339844 35.242188 14.71875 35.789062 13.824219 C 35.503906 13.867188 35.167969 13.851562 34.789062 13.78125 C 35.613281 13.3125 36.238281 12.640625 36.664062 11.777344 C 36.394531 11.835938 36.082031 11.832031 35.726562 11.773438 C 36.296875 11.296875 36.726562 10.75 37.015625 10.125 C 36.734375 10.140625 36.394531 10.160156 35.988281 10.175781 C 36.554688 9.796875 36.894531 9.21875 37.015625 8.4375 C 36.652344 8.582031 36.230469 8.667969 35.757812 8.695312 C 36.492188 8.136719 36.839844 7.554688 36.792969 6.957031 C 36.542969 7.101562 36.226562 7.167969 35.851562 7.164062 C 36.335938 6.765625 36.628906 6.171875 36.738281 5.371094 C 36.441406 5.453125 36.15625 5.46875 35.878906 5.417969 C 36.273438 5.019531 36.394531 4.515625 36.242188 3.902344 C 35.972656 4.261719 35.660156 4.492188 35.292969 4.601562 C 35.746094 3.949219 35.953125 3.378906 35.90625 2.898438 C 35.691406 3.109375 35.398438 3.277344 35.011719 3.394531 C 35.34375 2.851562 35.433594 2.242188 35.285156 1.570312 C 33.632812 4.664062 31.332031 6.878906 28.378906 8.21875 C 28.4375 8.035156 28.414062 7.875 28.3125 7.734375 C 27.914062 8.257812 27.304688 8.605469 26.476562 8.78125 C 25.417969 8.878906 24.441406 9.628906 23.542969 11.042969 C 22.777344 11.691406 22.144531 11.792969 21.644531 11.34375 C 21.929688 11.289062 22.078125 11.175781 22.085938 11.011719 C 21.671875 10.957031 21.425781 10.757812 21.335938 10.410156 C 21.578125 10.339844 21.746094 10.160156 21.835938 9.871094 C 21.503906 9.929688 21.199219 9.773438 20.917969 9.398438 C 21.09375 9.347656 21.246094 9.207031 21.378906 8.972656 C 20.933594 8.675781 20.484375 7.804688 20.039062 6.355469 C 20.535156 6.132812 20.859375 5.804688 21.011719 5.375 C 20.132812 5.425781 18.589844 5.117188 16.382812 4.445312 C 15.867188 4.300781 15.507812 4.433594 15.304688 4.835938 C 14.085938 4.933594 13.554688 5.335938 13.71875 6.042969 C 14.28125 5.941406 14.640625 6.007812 14.792969 6.253906 C 14.898438 6.371094 15.054688 6.421875 15.246094 6.410156 C 15.191406 6.640625 14.96875 6.753906 14.5625 6.753906 C 14.640625 7.171875 15.085938 7.410156 15.898438 7.464844 C 16.4375 7.46875 16.65625 7.601562 16.554688 7.863281 C 16.453125 8.066406 16.257812 8.164062 15.960938 8.164062 C 15.953125 8.273438 16.027344 8.367188 16.191406 8.441406 C 16.058594 8.710938 15.792969 8.835938 15.390625 8.804688 C 15.605469 9.097656 15.867188 9.238281 16.152344 9.222656 C 16.050781 9.546875 15.726562 9.769531 15.179688 9.890625 C 15.242188 10.101562 15.386719 10.234375 15.613281 10.292969 C 15.585938 10.550781 15.335938 10.707031 14.871094 10.765625 C 14.835938 10.976562 14.980469 11.117188 15.308594 11.199219 C 15.347656 11.414062 15.214844 11.5 14.902344 11.457031 C 14.105469 11.628906 13.4375 11.351562 12.894531 10.628906 C 11.917969 9.277344 10.78125 8.621094 9.480469 8.648438 C 8.964844 8.472656 8.496094 8.207031 8.078125 7.855469 C 8.109375 8.0625 8.179688 8.230469 8.296875 8.359375 C 5.675781 7.585938 3.320312 5.460938 1.222656 1.984375 C 1.128906 2.621094 1.207031 3.214844 1.46875 3.777344 C 1.226562 3.707031 0.960938 3.609375 0.675781 3.484375 C 0.796875 4.140625 1 4.632812 1.285156 4.972656 C 0.980469 4.890625 0.6875 4.792969 0.40625 4.667969 C 0.480469 5.398438 0.679688 5.898438 1.019531 6.175781 C 0.6875 6.175781 0.398438 6.097656 0.148438 5.9375 C 0.21875 6.535156 0.484375 7.085938 0.945312 7.585938 C 0.613281 7.574219 0.3125 7.507812 0.0429688 7.382812 C 0.0859375 8.015625 0.476562 8.683594 1.207031 9.390625 C 0.761719 9.253906 0.359375 9.066406 0 8.835938 C 0.09375 9.570312 0.523438 10.257812 1.289062 10.914062 C 0.9375 10.972656 0.535156 10.929688 0.0703125 10.78125 C 0.324219 11.367188 0.796875 11.910156 1.480469 12.417969 C 1.1875 12.484375 0.851562 12.449219 0.484375 12.316406 C 0.566406 12.871094 1.210938 13.53125 2.425781 14.308594 C 2.089844 14.394531 1.757812 14.398438 1.441406 14.308594 C 1.585938 14.9375 2.289062 15.519531 3.550781 16.042969 C 3.21875 16.265625 2.875 16.355469 2.515625 16.3125 C 2.824219 16.746094 3.472656 17.125 4.453125 17.449219 C 4.355469 17.597656 4.121094 17.6875 3.746094 17.710938 C 4.246094 18.265625 4.933594 18.609375 5.796875 18.753906 C 5.605469 18.90625 5.363281 19 5.070312 19.027344 C 5.304688 19.394531 5.867188 19.632812 6.757812 19.734375 C 6.859375 19.414062 7.105469 19.164062 7.402344 18.980469 C 7.441406 18.890625 7.488281 18.792969 7.511719 18.714844 C 7.382812 18.109375 7.492188 17.511719 7.773438 16.957031 C 7.835938 16.710938 7.917969 16.425781 7.957031 16.183594 C 7.957031 16.167969 7.960938 16.148438 7.964844 16.128906 C 8.050781 15.71875 8.253906 15.308594 8.703125 15.203125 C 8.726562 15.199219 8.75 15.199219 8.769531 15.195312 C 8.800781 15.191406 8.828125 15.1875 8.851562 15.1875 C 8.855469 15.179688 8.859375 15.175781 8.863281 15.167969 C 8.9375 15.042969 9.035156 14.957031 9.167969 14.898438 C 9.269531 14.855469 9.367188 14.832031 9.46875 14.816406 C 9.769531 14.648438 10.148438 14.675781 10.421875 14.898438 C 10.433594 14.910156 10.445312 14.917969 10.453125 14.929688 C 10.539062 14.308594 10.621094 13.6875 10.710938 13.066406 C 10.710938 13.039062 10.714844 13.007812 10.726562 12.976562 C 10.851562 12.539062 11.242188 12.324219 11.671875 12.367188 C 13.113281 12.320312 14.566406 12.613281 15.679688 13.597656 C 15.757812 13.667969 15.808594 13.742188 15.851562 13.835938 C 15.976562 14.132812 15.921875 14.445312 15.769531 14.714844 C 15.671875 14.992188 15.585938 15.292969 15.558594 15.589844 C 15.730469 16.023438 15.582031 16.519531 15.371094 16.9375 C 15.378906 17.082031 15.382812 17.226562 15.386719 17.371094 C 15.597656 17.449219 15.761719 17.601562 15.859375 17.800781 C 15.9375 17.894531 16.019531 17.984375 16.097656 18.074219 C 17.09375 18.101562 18.421875 18.269531 18.945312 19.15625 C 18.964844 19.195312 18.980469 19.226562 18.996094 19.269531 C 19.113281 19.597656 19.234375 19.929688 19.34375 20.265625 C 19.40625 20.25 19.464844 20.234375 19.523438 20.21875 C 19.527344 20.21875 19.527344 20.21875 19.527344 20.214844 C 19.613281 19.914062 19.816406 19.71875 20.078125 19.609375 C 19.960938 19.316406 19.890625 19 19.960938 18.691406 C 19.972656 18.648438 19.984375 18.609375 20.003906 18.570312 C 20.046875 18.480469 20.019531 18.324219 19.992188 18.230469 C 19.882812 17.824219 19.777344 17.414062 19.667969 17 C 19.546875 16.695312 19.542969 16.363281 19.679688 16.058594 C 19.695312 16.007812 19.71875 15.972656 19.75 15.929688 C 20.863281 14.414062 22.699219 14.070312 24.476562 14.183594 C 24.851562 14.183594 25.199219 14.339844 25.371094 14.695312 C 25.414062 14.789062 25.433594 14.878906 25.4375 14.980469 C 25.441406 15.6875 25.441406 16.398438 25.445312 17.105469 C 25.757812 17.503906 25.734375 17.996094 25.519531 18.445312 C 25.785156 19.160156 25.390625 20 25.003906 20.625 C 24.988281 20.703125 24.964844 20.777344 24.933594 20.84375 C 25.117188 20.886719 25.289062 20.960938 25.457031 21.054688 C 25.671875 20.976562 25.9375 20.832031 26.132812 20.71875 C 26.28125 20.480469 26.488281 20.300781 26.742188 20.199219 C 26.894531 20.003906 27.09375 19.863281 27.332031 19.765625 C 27.5 19.570312 27.710938 19.238281 27.832031 19.0625 C 28.246094 18.433594 28.640625 17.785156 29.027344 17.144531 C 29.234375 16.695312 29.445312 16.246094 29.652344 15.796875 C 29.675781 15.730469 29.714844 15.625 29.722656 15.558594 C 29.625 15.089844 29.550781 14.609375 29.5 14.132812 C 29.46875 13.992188 29.449219 13.855469 29.445312 13.707031 C 29.386719 13.5625 29.347656 13.410156 29.34375 13.25 C 29.339844 13.101562 29.378906 12.976562 29.460938 12.851562 C 29.636719 12.59375 29.902344 12.464844 30.1875 12.460938 C 30.300781 12.207031 30.4375 11.964844 30.578125 11.742188 C 30.609375 11.699219 30.632812 11.664062 30.667969 11.632812 C 30.90625 11.386719 31.273438 11.316406 31.589844 11.449219 C 31.605469 11.457031 31.625 11.464844 31.644531 11.472656 C 31.757812 11.414062 31.878906 11.375 32.007812 11.371094 C 32.3125 11.355469 32.613281 11.511719 32.773438 11.773438 C 32.789062 11.800781 32.808594 11.828125 32.820312 11.855469 C 33.078125 11.980469 33.257812 12.246094 33.257812 12.613281 C 33.316406 12.6875 33.367188 12.777344 33.398438 12.878906 C 33.457031 13.035156 33.457031 13.1875 33.394531 13.34375 C 33.253906 13.710938 33.113281 14.078125 32.96875 14.445312 C 33.042969 15.289062 32.683594 16.03125 32.085938 16.621094 C 32.078125 16.636719 32.074219 16.648438 32.070312 16.664062 C 32.164062 16.742188 32.257812 16.820312 32.351562 16.898438 C 32.59375 17.105469 32.664062 17.441406 32.511719 17.722656 Z M 6.707031 20.109375 C 6.667969 20.125 6.621094 20.136719 6.578125 20.148438 C 6.621094 20.1875 6.667969 20.230469 6.714844 20.265625 C 6.71875 20.261719 6.722656 20.253906 6.726562 20.246094 C 6.714844 20.199219 6.710938 20.160156 6.707031 20.109375 Z M 22.601562 29.96875 C 22.550781 29.757812 22.617188 29.53125 22.777344 29.367188 C 22.746094 29.210938 22.773438 29.0625 22.851562 28.921875 C 22.832031 28.886719 22.792969 28.84375 22.765625 28.820312 C 22.585938 28.753906 22.453125 28.625 22.382812 28.457031 C 22.367188 28.523438 22.34375 28.582031 22.304688 28.640625 C 22.285156 28.675781 22.261719 28.710938 22.242188 28.746094 C 22.242188 28.785156 22.238281 28.816406 22.230469 28.859375 C 22.222656 28.902344 22.207031 28.949219 22.203125 28.992188 C 22.199219 29 22.199219 29.023438 22.203125 29.03125 C 22.246094 29.132812 22.257812 29.226562 22.25 29.332031 C 22.308594 29.441406 22.339844 29.546875 22.339844 29.671875 C 22.339844 29.707031 22.363281 29.753906 22.386719 29.777344 C 22.441406 29.84375 22.53125 29.90625 22.589844 29.960938 C 22.59375 29.964844 22.597656 29.96875 22.601562 29.96875 Z M 10.980469 18.546875 C 10.96875 18.578125 10.953125 18.605469 10.933594 18.632812 C 10.902344 18.703125 10.875 18.769531 10.839844 18.839844 C 10.910156 18.808594 10.980469 18.777344 11.058594 18.753906 C 11.027344 18.6875 11.003906 18.621094 10.980469 18.546875 Z M 10.980469 18.546875 " fill-opacity="1" fill-rule="evenodd"/></g><path fill="#ffbd59" d="M 11 15.96875 C 10.953125 15.773438 10.976562 15.578125 11.066406 15.382812 C 11.269531 13.902344 11.371094 13.15625 11.371094 13.15625 C 11.402344 13.050781 11.492188 13.007812 11.636719 13.039062 C 13.171875 12.976562 14.371094 13.332031 15.234375 14.097656 C 15.269531 14.183594 15.246094 14.296875 15.160156 14.425781 C 14.980469 14.921875 14.890625 15.359375 14.882812 15.738281 C 15.035156 15.9375 14.976562 16.28125 14.699219 16.78125 C 14.726562 17.660156 14.742188 18.097656 14.742188 18.097656 C 15.054688 17.933594 15.230469 17.953125 15.273438 18.15625 C 15.621094 18.542969 15.796875 18.738281 15.796875 18.738281 C 17.214844 18.746094 18.074219 19 18.367188 19.492188 C 18.570312 20.058594 18.75 20.582031 18.90625 21.066406 C 19.203125 20.980469 19.527344 20.898438 19.890625 20.824219 C 19.890625 20.824219 19.976562 20.71875 20.152344 20.511719 C 20.167969 20.246094 20.382812 20.128906 20.800781 20.175781 C 20.800781 20.175781 20.800781 19.976562 20.800781 19.582031 C 20.636719 19.257812 20.578125 19.011719 20.613281 18.84375 C 20.710938 18.628906 20.71875 18.371094 20.640625 18.0625 C 20.640625 18.0625 20.527344 17.640625 20.304688 16.792969 C 20.230469 16.621094 20.226562 16.464844 20.289062 16.328125 C 21.105469 15.214844 22.496094 14.722656 24.460938 14.851562 C 24.621094 14.847656 24.722656 14.890625 24.765625 14.984375 C 24.765625 14.984375 24.769531 15.730469 24.777344 17.222656 C 24.765625 17.320312 24.804688 17.40625 24.882812 17.476562 C 25.050781 17.648438 25.054688 17.886719 24.898438 18.195312 C 24.820312 18.300781 24.789062 18.410156 24.8125 18.523438 C 25.074219 18.902344 24.925781 19.523438 24.359375 20.394531 C 24.351562 20.707031 24.097656 20.910156 23.601562 21.015625 C 23.601562 21.015625 23.859375 21.183594 24.25 21.492188 C 24.625 21.40625 24.980469 21.5 25.320312 21.773438 C 25.625 21.738281 26.066406 21.546875 26.636719 21.195312 C 26.742188 20.945312 26.917969 20.804688 27.167969 20.777344 C 27.265625 20.558594 27.441406 20.417969 27.695312 20.34375 C 27.972656 20.085938 28.617188 19.125 29.621094 17.457031 C 29.621094 17.457031 29.835938 16.988281 30.269531 16.054688 C 30.359375 15.820312 30.398438 15.628906 30.386719 15.488281 C 30.28125 14.964844 30.203125 14.476562 30.160156 14.015625 C 30.117188 13.875 30.105469 13.726562 30.117188 13.574219 C 30.050781 13.441406 30.011719 13.328125 30.007812 13.230469 C 30.074219 13.136719 30.171875 13.109375 30.296875 13.148438 C 30.453125 13.203125 30.558594 13.351562 30.613281 13.597656 C 30.585938 13.195312 30.765625 12.695312 31.144531 12.101562 C 31.191406 12.054688 31.265625 12.039062 31.332031 12.066406 C 31.394531 12.089844 31.4375 12.15625 31.4375 12.222656 C 31.4375 12.222656 31.351562 12.46875 31.179688 12.957031 C 31.136719 13.175781 31.140625 13.378906 31.191406 13.566406 C 31.253906 13.21875 31.332031 12.976562 31.421875 12.847656 C 31.496094 12.726562 31.65625 12.488281 31.894531 12.136719 C 31.921875 12.082031 31.980469 12.042969 32.042969 12.039062 C 32.109375 12.035156 32.171875 12.066406 32.207031 12.121094 C 32.238281 12.175781 32.238281 12.246094 32.207031 12.300781 C 32.207031 12.300781 32.121094 12.46875 31.953125 12.800781 C 31.777344 13.140625 31.683594 13.445312 31.664062 13.71875 C 31.808594 13.335938 32.03125 12.929688 32.324219 12.492188 C 32.503906 12.402344 32.59375 12.445312 32.589844 12.621094 C 32.589844 12.621094 32.546875 12.734375 32.457031 12.960938 C 32.605469 12.890625 32.710938 12.941406 32.769531 13.105469 C 32.769531 13.105469 32.609375 13.523438 32.285156 14.359375 C 32.398438 15.035156 32.148438 15.652344 31.546875 16.214844 C 31.402344 16.460938 31.347656 16.710938 31.386719 16.960938 C 31.386719 16.960938 31.566406 17.113281 31.921875 17.414062 C 31.921875 17.414062 31.753906 17.734375 31.417969 18.375 C 30.144531 21.457031 28.25 23.515625 25.730469 24.539062 C 25.851562 24.8125 25.914062 25.632812 25.921875 27 C 25.972656 27.960938 26.207031 29.070312 26.621094 30.335938 C 26.613281 30.351562 26.605469 30.363281 26.597656 30.378906 C 26.566406 30.394531 26.539062 30.410156 26.515625 30.429688 C 26.507812 30.421875 26.503906 30.417969 26.496094 30.410156 C 26.542969 30.230469 26.511719 30.042969 26.398438 29.894531 C 26.390625 29.75 26.332031 29.601562 26.214844 29.492188 C 26.09375 29.371094 25.9375 29.3125 25.773438 29.292969 C 25.710938 29.28125 25.644531 29.28125 25.585938 29.28125 C 25.5625 29.265625 25.542969 29.25 25.519531 29.238281 C 25.378906 29.152344 25.234375 29.125 25.078125 29.121094 C 24.96875 29.082031 24.875 29.058594 24.746094 29.066406 C 24.554688 29.082031 24.398438 29.167969 24.28125 29.300781 C 24.257812 29.304688 24.230469 29.308594 24.207031 29.316406 C 24.140625 29.332031 24.078125 29.355469 24.023438 29.390625 C 23.824219 29.40625 23.628906 29.507812 23.511719 29.671875 C 23.324219 29.929688 23.359375 30.226562 23.539062 30.4375 C 23.554688 30.488281 23.578125 30.53125 23.601562 30.574219 C 23.457031 30.527344 23.3125 30.527344 23.167969 30.578125 C 23.199219 30.542969 23.226562 30.507812 23.246094 30.46875 C 23.359375 30.269531 23.351562 30.03125 23.253906 29.835938 C 23.433594 29.667969 23.484375 29.453125 23.433594 29.25 C 23.632812 28.9375 23.503906 28.585938 23.210938 28.324219 C 23.144531 28.261719 23.070312 28.21875 22.996094 28.191406 C 22.988281 28.164062 22.976562 28.128906 22.96875 28.09375 C 22.832031 27.78125 22.472656 27.660156 22.167969 27.796875 C 21.960938 27.886719 21.777344 28.074219 21.734375 28.296875 C 21.644531 28.449219 21.5625 28.535156 21.570312 28.742188 C 21.558594 28.800781 21.546875 28.855469 21.539062 28.914062 C 21.523438 29.039062 21.539062 29.164062 21.582031 29.273438 C 21.566406 29.410156 21.597656 29.546875 21.667969 29.671875 C 21.667969 29.863281 21.742188 30.046875 21.875 30.207031 C 21.960938 30.308594 22.042969 30.371094 22.140625 30.457031 C 22.214844 30.542969 22.304688 30.625 22.40625 30.679688 C 22.34375 30.722656 22.285156 30.769531 22.238281 30.835938 C 22.226562 30.839844 22.214844 30.84375 22.207031 30.851562 C 22.019531 30.773438 21.875 30.757812 21.664062 30.769531 C 21.484375 30.777344 21.308594 30.800781 21.160156 30.914062 C 20.984375 31.042969 20.90625 31.230469 20.914062 31.433594 C 20.894531 31.527344 20.886719 31.613281 20.894531 31.691406 L 20.53125 31.703125 C 20.519531 31.675781 20.503906 31.652344 20.488281 31.632812 C 20.386719 31.5 20.25 31.410156 20.097656 31.363281 C 20.082031 31.277344 20.046875 31.191406 20 31.113281 C 19.980469 31.058594 19.953125 31.007812 19.921875 30.957031 C 19.945312 30.929688 19.964844 30.902344 19.984375 30.871094 C 20 30.859375 20.011719 30.847656 20.023438 30.839844 C 20.332031 30.824219 20.597656 30.578125 20.652344 30.246094 C 20.667969 30.164062 20.667969 30.085938 20.652344 30.011719 C 20.71875 29.96875 20.773438 29.921875 20.84375 29.859375 C 21.601562 29.617188 21.625 28.664062 20.804688 28.464844 C 20.582031 28.414062 20.363281 28.441406 20.164062 28.558594 C 20.109375 28.59375 20.0625 28.632812 20.015625 28.671875 C 19.933594 28.652344 19.84375 28.644531 19.757812 28.648438 C 19.636719 28.574219 19.496094 28.535156 19.339844 28.539062 C 19.269531 28.542969 19.207031 28.554688 19.144531 28.566406 C 18.972656 28.484375 18.761719 28.457031 18.578125 28.472656 C 18.304688 28.496094 18.070312 28.625 17.9375 28.832031 C 17.921875 28.804688 17.902344 28.785156 17.878906 28.757812 C 17.816406 28.664062 17.734375 28.589844 17.636719 28.523438 C 17.628906 28.394531 17.582031 28.265625 17.511719 28.140625 C 17.464844 28.066406 17.414062 28 17.363281 27.9375 C 17.484375 27.859375 17.574219 27.738281 17.621094 27.601562 C 17.644531 27.59375 17.664062 27.585938 17.6875 27.582031 C 17.910156 27.515625 18.0625 27.332031 18.085938 27.101562 C 18.125 26.730469 17.988281 26.441406 17.625 26.351562 C 17.496094 26.230469 17.371094 26.152344 17.230469 26.113281 C 17.199219 25.976562 17.125 25.855469 16.996094 25.753906 C 16.890625 25.679688 16.808594 25.652344 16.707031 25.632812 C 16.515625 25.484375 16.277344 25.417969 16.03125 25.5 C 15.886719 25.542969 15.800781 25.613281 15.710938 25.710938 C 15.53125 25.816406 15.414062 25.984375 15.335938 26.183594 C 15.324219 26.222656 15.308594 26.273438 15.296875 26.316406 C 15.183594 26.371094 15.089844 26.4375 15.019531 26.523438 C 14.921875 26.558594 14.824219 26.605469 14.738281 26.660156 C 14.507812 26.792969 14.273438 26.972656 14.238281 27.253906 C 14.214844 27.28125 14.179688 27.308594 14.160156 27.328125 C 14.007812 27.457031 13.894531 27.578125 13.859375 27.78125 C 13.808594 27.800781 13.738281 27.820312 13.707031 27.832031 C 13.558594 27.882812 13.425781 27.945312 13.308594 28.035156 C 13.121094 28.117188 12.996094 28.265625 12.929688 28.445312 C 12.636719 28.269531 12.25 28.355469 11.988281 28.660156 C 11.839844 28.832031 11.683594 29.089844 11.679688 29.328125 C 11.515625 29.648438 11.601562 29.929688 11.78125 30.179688 C 11.78125 30.179688 11.78125 30.179688 11.78125 30.183594 C 11.796875 30.460938 11.976562 30.800781 12.230469 30.9375 C 12.222656 30.96875 12.222656 31.003906 12.21875 31.035156 C 12.199219 31.027344 12.179688 31.019531 12.160156 31.015625 C 12.042969 30.929688 11.898438 30.886719 11.746094 30.890625 C 11.609375 30.871094 11.46875 30.886719 11.339844 30.933594 C 11.316406 30.875 11.28125 30.820312 11.234375 30.769531 C 11.113281 30.539062 10.859375 30.402344 10.589844 30.453125 C 10.585938 30.453125 10.582031 30.457031 10.578125 30.457031 C 10.492188 30.433594 10.40625 30.429688 10.324219 30.445312 C 10.316406 30.4375 10.308594 30.425781 10.296875 30.417969 C 10.214844 30.289062 10.089844 30.195312 9.941406 30.136719 C 9.945312 30.015625 9.921875 29.890625 9.867188 29.773438 C 9.773438 29.578125 9.605469 29.433594 9.402344 29.375 C 9.671875 28.582031 10.082031 27.660156 10.625 26.609375 C 10.480469 25.875 10.355469 25 10.246094 23.984375 C 8.195312 24.90625 6.964844 24.945312 6.554688 24.097656 C 6.089844 23.054688 6.269531 21.980469 7.105469 20.875 C 7.355469 20.585938 7.445312 20.320312 7.375 20.082031 C 7.363281 19.851562 7.542969 19.644531 7.90625 19.460938 C 8.097656 19.082031 8.195312 18.832031 8.199219 18.703125 C 8.054688 18.210938 8.125 17.707031 8.398438 17.199219 C 8.535156 16.660156 8.609375 16.355469 8.621094 16.269531 C 8.671875 16.015625 8.753906 15.878906 8.855469 15.855469 C 9.019531 15.832031 9.082031 15.9375 9.042969 16.171875 C 9.304688 15.730469 9.4375 15.511719 9.4375 15.511719 C 9.574219 15.453125 9.667969 15.46875 9.71875 15.570312 C 9.757812 15.464844 9.777344 15.410156 9.777344 15.410156 C 9.84375 15.363281 9.9375 15.367188 10 15.417969 C 10.066406 15.46875 10.089844 15.554688 10.054688 15.636719 C 10.136719 15.640625 10.171875 15.714844 10.160156 15.863281 C 10.164062 15.984375 10.136719 16.105469 10.078125 16.230469 C 10.039062 16.460938 9.992188 16.621094 9.929688 16.707031 C 9.941406 16.964844 9.910156 17.136719 9.851562 17.21875 C 9.804688 17.570312 9.820312 17.847656 9.898438 18.042969 C 9.96875 17.871094 10 17.789062 10 17.789062 C 10.085938 17.398438 10.234375 17.175781 10.453125 17.132812 C 10.59375 17.117188 10.65625 17.175781 10.652344 17.3125 C 10.558594 17.515625 10.515625 17.707031 10.515625 17.882812 C 10.515625 17.988281 10.453125 18.136719 10.335938 18.332031 C 10.125 18.851562 9.863281 19.171875 9.539062 19.292969 C 9.296875 19.367188 9.152344 19.640625 9.101562 20.121094 C 9.011719 20.914062 8.964844 21.316406 8.964844 21.316406 C 9.253906 21.324219 9.445312 21.234375 9.546875 21.050781 C 9.664062 20.609375 9.964844 20.265625 10.445312 20.027344 C 10.8125 19.46875 11.40625 19.226562 12.222656 19.300781 C 12.320312 19.015625 12.371094 18.871094 12.371094 18.871094 C 11.878906 18.894531 11.617188 18.644531 11.589844 18.117188 C 11.117188 17.511719 10.976562 17 11.171875 16.585938 C 10.992188 16.316406 10.933594 16.109375 11 15.96875 Z M 16.972656 31.78125 L 16.863281 31.78125 C 16.859375 31.71875 16.84375 31.652344 16.824219 31.59375 C 16.835938 31.5625 16.839844 31.53125 16.839844 31.496094 C 16.890625 31.386719 16.914062 31.265625 16.90625 31.132812 C 16.914062 31.085938 16.917969 31.035156 16.914062 30.988281 C 17.050781 30.871094 17.136719 30.714844 17.171875 30.535156 C 17.171875 30.542969 17.171875 30.550781 17.175781 30.554688 C 17.160156 30.625 17.15625 30.695312 17.160156 30.773438 C 17.035156 30.925781 16.996094 31.042969 16.976562 31.234375 C 16.917969 31.414062 16.914062 31.613281 16.972656 31.78125 Z M 17.339844 29.9375 C 17.332031 29.941406 17.328125 29.941406 17.320312 29.941406 C 17.320312 29.949219 17.316406 29.957031 17.316406 29.964844 C 17.324219 29.957031 17.328125 29.953125 17.335938 29.945312 C 17.339844 29.941406 17.339844 29.941406 17.339844 29.9375 Z M 17.339844 29.9375 " fill-opacity="1" fill-rule="evenodd"/><path fill="#ffbd59" d="M 5.082031 27.902344 C 4.941406 27.761719 4.953125 27.882812 4.828125 27.65625 C 4.820312 27.644531 4.660156 27.457031 4.652344 27.453125 C 4.652344 27.390625 4.453125 27 4.878906 27.15625 C 5.046875 27.21875 4.953125 27.289062 5.316406 27.304688 C 5.910156 27.332031 5.695312 27.453125 6.101562 27.617188 C 6.128906 27.628906 6.171875 27.800781 6.335938 27.921875 C 6.515625 28.058594 6.574219 28.160156 6.808594 28.269531 C 7.136719 28.425781 7.214844 28.503906 7.480469 28.734375 C 7.601562 28.839844 7.589844 28.660156 7.867188 28.886719 C 7.949219 28.945312 7.980469 28.820312 8.042969 29.15625 C 8.042969 29.179688 8.398438 29.347656 8.453125 29.421875 C 8.734375 29.804688 8.722656 29.601562 8.867188 29.746094 C 9.003906 29.875 8.695312 29.949219 9.179688 29.90625 C 9.324219 29.894531 9.46875 30.078125 9.300781 30.292969 C 9.183594 30.441406 9.386719 30.285156 9.402344 30.527344 C 9.410156 30.683594 9.785156 30.589844 9.828125 30.746094 C 9.832031 30.832031 9.945312 30.753906 9.929688 30.988281 C 9.917969 31.160156 10 31.050781 10.023438 31.269531 C 10.039062 31.378906 10.324219 31.230469 10.449219 31.574219 C 10.507812 31.726562 10.761719 31.789062 10.675781 31.988281 C 10.65625 32.03125 10.761719 32.332031 10.628906 32.390625 C 10.699219 32.664062 10.792969 32.585938 10.671875 32.828125 C 10.597656 32.976562 10.867188 33.273438 10.507812 33.148438 C 10.199219 33.042969 10.433594 33.1875 10.1875 33.171875 C 10.15625 33.171875 9.878906 32.980469 9.976562 33.160156 C 10.074219 33.339844 9.789062 33.316406 9.734375 33.183594 C 9.625 32.898438 9.367188 32.746094 9.105469 32.621094 C 9.007812 32.574219 8.660156 32.285156 8.640625 32.175781 C 8.617188 32.070312 7.757812 31.613281 7.847656 31.367188 C 7.890625 31.238281 7.8125 31.136719 7.722656 31.050781 C 7.722656 31.050781 7.703125 31.019531 7.699219 31.011719 C 7.640625 30.863281 7.558594 30.898438 7.511719 30.691406 C 7.476562 30.515625 7.351562 30.667969 7.300781 30.304688 C 7.285156 30.179688 6.941406 30.09375 6.929688 29.863281 C 6.917969 29.757812 6.628906 29.449219 6.667969 29.378906 C 6.726562 29.261719 6.597656 29.324219 6.40625 29.140625 C 6.296875 29.035156 6.210938 29.1875 6.183594 28.921875 L 6.175781 28.902344 C 6.089844 28.6875 5.839844 28.613281 5.714844 28.371094 C 5.554688 28.082031 5.523438 28.25 5.257812 28.007812 C 5.242188 27.996094 5.105469 27.910156 5.082031 27.902344 Z M 5.082031 27.902344 " fill-opacity="1" fill-rule="evenodd"/><path fill="#ffbd59" d="M 10.585938 31.300781 C 10.5 31.28125 10.503906 31.261719 10.402344 31.246094 C 10.332031 31.238281 10.269531 31.179688 10.355469 31.117188 C 10.355469 31.117188 10.367188 30.910156 10.519531 31.046875 C 10.578125 31.105469 10.710938 30.9375 10.738281 31.042969 C 10.78125 31.203125 10.847656 31.054688 10.859375 31.34375 C 10.859375 31.378906 10.882812 31.429688 10.910156 31.433594 C 10.960938 31.4375 10.953125 31.460938 11.050781 31.449219 C 11.109375 31.445312 11.128906 31.535156 11.078125 31.589844 C 11.03125 31.644531 11.191406 31.699219 11.066406 31.773438 C 11.019531 31.800781 11.019531 31.691406 10.917969 31.683594 C 10.882812 31.679688 10.839844 31.625 10.765625 31.601562 C 10.65625 31.566406 10.730469 31.519531 10.648438 31.4375 C 10.613281 31.402344 10.664062 31.316406 10.585938 31.300781 Z M 10.585938 31.300781 " fill-opacity="1" fill-rule="evenodd"/><path fill="#ffbd59" d="M 11.460938 31.699219 C 11.453125 31.589844 11.492188 31.609375 11.496094 31.5 C 11.496094 31.457031 11.652344 31.425781 11.699219 31.464844 C 11.703125 31.46875 11.816406 31.421875 11.835938 31.492188 C 11.835938 31.492188 12.007812 31.558594 12.007812 31.558594 C 12.007812 31.558594 11.988281 31.621094 11.992188 31.640625 C 12.007812 31.746094 11.917969 31.695312 11.898438 31.796875 C 11.890625 31.859375 11.722656 31.691406 11.691406 31.730469 C 11.601562 31.824219 11.589844 31.621094 11.539062 31.710938 C 11.527344 31.730469 11.460938 31.707031 11.460938 31.699219 Z M 11.460938 31.699219 " fill-opacity="1" fill-rule="evenodd"/><path fill="#ffbd59" d="M 11.4375 34.195312 C 11.402344 34.199219 11.125 34.175781 11.089844 34.15625 C 11.019531 34.117188 10.984375 34.097656 11.011719 33.976562 C 11.035156 33.871094 11.046875 33.960938 10.910156 33.886719 C 10.878906 33.867188 10.863281 33.75 10.734375 33.832031 C 10.628906 33.894531 10.710938 33.878906 10.550781 33.886719 C 10.535156 33.886719 10.492188 33.894531 10.476562 33.898438 C 10.375 33.875 10.269531 33.691406 10.445312 33.742188 C 10.550781 33.773438 10.449219 33.761719 10.574219 33.757812 C 10.621094 33.753906 10.601562 33.71875 10.609375 33.671875 C 10.738281 33.636719 10.710938 33.523438 10.773438 33.476562 C 10.796875 33.457031 10.664062 33.269531 10.863281 33.289062 C 10.9375 33.292969 10.957031 33.332031 11.089844 33.3125 C 11.148438 33.300781 11.265625 33.488281 11.328125 33.332031 C 11.339844 33.292969 11.503906 33.265625 11.535156 33.332031 C 11.566406 33.386719 11.785156 33.40625 11.867188 33.457031 C 11.917969 33.496094 12.089844 33.382812 12.113281 33.570312 C 12.128906 33.6875 12.488281 33.859375 12.632812 33.796875 C 12.65625 33.785156 13.011719 33.761719 13.039062 33.769531 C 13.128906 33.796875 13.253906 33.710938 13.238281 33.566406 C 13.230469 33.476562 13.371094 33.457031 13.472656 33.535156 C 13.542969 33.589844 13.609375 33.460938 13.75 33.585938 C 13.789062 33.613281 13.96875 33.609375 14.054688 33.691406 C 14.148438 33.785156 14.171875 33.617188 14.261719 33.6875 C 14.304688 33.71875 14.25 33.769531 14.339844 33.839844 C 14.492188 33.929688 14.402344 33.890625 14.472656 34.035156 C 14.535156 34.164062 14.664062 34.046875 14.746094 34.113281 C 14.75 34.113281 14.808594 34.140625 14.828125 34.152344 C 14.929688 34.222656 14.933594 34 15.15625 34.214844 C 15.230469 34.285156 15.125 34.398438 15.234375 34.515625 C 15.234375 34.515625 15.300781 34.632812 15.214844 34.632812 C 14.945312 34.628906 15.097656 34.707031 14.910156 34.539062 C 14.875 34.507812 14.800781 34.542969 14.699219 34.46875 C 14.613281 34.402344 14.3125 34.625 14.195312 34.496094 C 14.117188 34.410156 13.964844 34.4375 13.890625 34.5 C 13.769531 34.609375 13.765625 34.453125 13.566406 34.476562 C 13.429688 34.492188 13.53125 34.5 13.421875 34.546875 C 13.289062 34.597656 13.175781 34.398438 13.019531 34.398438 C 12.949219 34.398438 12.9375 34.25 12.816406 34.292969 C 12.660156 34.34375 12.574219 34.167969 12.472656 34.234375 C 12.324219 34.335938 12.417969 34.265625 12.234375 34.207031 C 12.148438 34.179688 12.105469 34.335938 12.035156 34.339844 C 11.757812 34.347656 11.796875 34.171875 11.464844 34.199219 C 11.445312 34.199219 11.457031 34.195312 11.4375 34.195312 Z M 11.4375 34.195312 " fill-opacity="1" fill-rule="evenodd"/><path fill="#ffbd59" d="M 14.582031 33.714844 C 14.648438 33.710938 14.71875 33.777344 14.855469 33.746094 C 15.050781 33.695312 15.15625 33.867188 14.792969 33.851562 C 14.710938 33.847656 14.621094 33.839844 14.550781 33.867188 C 14.480469 33.886719 14.230469 33.726562 14.582031 33.714844 Z M 14.582031 33.714844 " fill-opacity="1" fill-rule="evenodd"/><path fill="#ffbd59" d="M 15.464844 34.527344 C 15.265625 34.5 15.382812 34.492188 15.3125 34.386719 C 15.269531 34.328125 15.425781 34.308594 15.484375 34.347656 C 15.519531 34.375 15.691406 34.175781 15.777344 34.289062 C 15.832031 34.367188 16.042969 34.421875 15.9375 34.515625 C 15.929688 34.523438 15.800781 34.554688 15.78125 34.601562 C 15.761719 34.652344 15.695312 34.636719 15.6875 34.730469 C 15.6875 34.730469 15.652344 34.761719 15.628906 34.707031 C 15.570312 34.574219 15.574219 34.65625 15.507812 34.546875 C 15.5 34.546875 15.46875 34.527344 15.464844 34.527344 Z M 15.464844 34.527344 " fill-opacity="1" fill-rule="evenodd"/><path fill="#ffbd59" d="M 16.121094 34.660156 C 16.082031 34.609375 15.910156 34.671875 16.035156 34.710938 C 16.085938 34.730469 16.089844 34.75 16.15625 34.769531 C 16.292969 34.816406 16.191406 34.761719 16.308594 34.773438 C 16.390625 34.78125 16.398438 34.742188 16.4375 34.792969 C 16.449219 34.808594 16.5625 34.851562 16.597656 34.851562 C 16.703125 34.847656 16.675781 34.859375 16.757812 34.828125 C 16.78125 34.8125 16.84375 34.855469 16.890625 34.804688 C 16.90625 34.785156 16.988281 34.839844 17.078125 34.78125 C 17.140625 34.742188 17.191406 34.765625 17.277344 34.714844 C 17.308594 34.691406 17.402344 34.738281 17.421875 34.679688 C 17.433594 34.640625 17.464844 34.707031 17.5625 34.703125 C 17.644531 34.703125 17.667969 34.71875 17.742188 34.671875 C 17.855469 34.597656 17.734375 34.609375 17.796875 34.515625 C 17.804688 34.503906 17.773438 34.511719 17.773438 34.476562 C 17.769531 34.375 17.746094 34.308594 17.632812 34.316406 C 17.621094 34.316406 17.585938 34.398438 17.5 34.324219 C 17.445312 34.277344 17.371094 34.34375 17.335938 34.308594 C 17.3125 34.289062 17.285156 34.308594 17.269531 34.269531 C 17.261719 34.246094 17.097656 34.203125 17.066406 34.285156 C 17.058594 34.308594 17.039062 34.308594 17.082031 34.359375 C 17.144531 34.433594 17.230469 34.394531 17.261719 34.484375 C 17.261719 34.488281 17.3125 34.539062 17.265625 34.578125 C 17.265625 34.578125 17.113281 34.605469 17.097656 34.59375 C 16.949219 34.507812 16.9375 34.40625 16.753906 34.457031 C 16.675781 34.476562 16.742188 34.476562 16.628906 34.476562 C 16.527344 34.472656 16.511719 34.550781 16.488281 34.5625 C 16.402344 34.589844 16.574219 34.453125 16.332031 34.433594 C 16.203125 34.421875 16.316406 34.386719 16.171875 34.464844 C 16.152344 34.472656 16.164062 34.53125 16.132812 34.578125 C 16.117188 34.597656 16.125 34.664062 16.121094 34.660156 Z M 16.121094 34.660156 " fill-opacity="1" fill-rule="evenodd"/><path fill="#ffbd59" d="M 18.042969 34.621094 C 18.027344 34.519531 18.097656 34.539062 18.109375 34.5 C 18.117188 34.464844 18.195312 34.4375 18.234375 34.390625 C 18.234375 34.386719 18.269531 34.386719 18.296875 34.335938 C 18.316406 34.304688 18.511719 34.25 18.542969 34.269531 C 18.683594 34.355469 18.730469 34.335938 18.894531 34.320312 C 18.90625 34.320312 19.039062 34.464844 19.191406 34.371094 C 19.273438 34.316406 19.390625 34.453125 19.441406 34.417969 C 19.484375 34.394531 19.542969 34.4375 19.570312 34.363281 C 19.601562 34.292969 19.707031 34.378906 19.722656 34.199219 C 19.726562 34.140625 19.902344 34.117188 19.902344 34.117188 C 19.941406 34.167969 19.945312 34.132812 19.949219 34.230469 C 19.953125 34.308594 20.046875 34.246094 19.914062 34.363281 C 19.867188 34.398438 19.902344 34.457031 19.796875 34.460938 C 19.640625 34.46875 19.613281 34.664062 19.433594 34.578125 C 19.335938 34.53125 19.246094 34.597656 19.15625 34.609375 C 19.101562 34.613281 19.160156 34.632812 19.078125 34.601562 C 18.910156 34.542969 18.902344 34.714844 18.691406 34.671875 C 18.546875 34.644531 18.433594 34.695312 18.292969 34.648438 C 18.207031 34.617188 18.132812 34.722656 18.074219 34.671875 C 18.039062 34.652344 18.046875 34.652344 18.042969 34.621094 Z M 18.042969 34.621094 " fill-opacity="1" fill-rule="evenodd"/><g clip-path="url(#965250a991)"><path fill="#ffbd59" d="M 17.855469 35.136719 C 17.714844 35.164062 17.707031 35.070312 17.777344 34.976562 C 17.808594 34.933594 17.761719 34.933594 17.84375 34.882812 C 17.992188 34.789062 17.90625 34.933594 18.105469 34.9375 C 18.511719 34.953125 18.246094 34.988281 18.472656 35.089844 C 18.664062 35.171875 18.53125 35.160156 18.710938 35.289062 C 18.777344 35.332031 18.535156 35.4375 18.503906 35.441406 C 18.230469 35.453125 18.386719 35.414062 18.121094 35.289062 C 18.027344 35.242188 18.164062 35.164062 17.917969 35.183594 C 17.886719 35.1875 17.882812 35.132812 17.855469 35.136719 Z M 17.855469 35.136719 " fill-opacity="1" fill-rule="evenodd"/></g><g clip-path="url(#c0617e2dc4)"><path fill="#ffbd59" d="M 20.152344 35.03125 C 20.027344 34.789062 20.214844 34.875 20.21875 34.648438 C 20.21875 34.550781 20.667969 34.449219 20.730469 34.390625 C 20.773438 34.34375 20.933594 34.332031 21.023438 34.183594 C 21.0625 34.125 21.226562 34.203125 21.320312 34.132812 C 21.351562 34.117188 22.050781 33.90625 22.015625 34.136719 C 22.015625 34.148438 21.773438 34.21875 21.722656 34.320312 C 21.636719 34.503906 21.25 34.34375 21.046875 34.617188 C 20.980469 34.710938 20.832031 34.722656 20.660156 34.992188 C 20.554688 35.15625 20.382812 34.992188 20.3125 35.105469 C 20.292969 35.144531 20.007812 35.195312 20.101562 35.050781 C 20.117188 35.027344 20.15625 35.042969 20.152344 35.03125 Z M 20.152344 35.03125 " fill-opacity="1" fill-rule="evenodd"/></g><path fill="#ffbd59" d="M 12.347656 30.148438 C 12.363281 30.097656 12.367188 30.023438 12.339844 29.972656 C 12.257812 29.882812 12.105469 29.730469 12.1875 29.570312 C 12.222656 29.511719 12.265625 29.59375 12.242188 29.332031 C 12.234375 29.269531 12.554688 28.695312 12.699219 29.015625 C 12.722656 29.0625 12.945312 29.042969 12.960938 29.136719 C 13.058594 29.140625 13.191406 29.101562 13.273438 29.164062 C 13.421875 29.277344 13.410156 28.894531 13.4375 28.820312 C 13.441406 28.800781 13.386719 28.5625 13.601562 28.539062 C 13.617188 28.535156 13.617188 28.53125 13.613281 28.523438 C 13.835938 28.273438 14.355469 28.390625 14.414062 27.886719 C 14.425781 27.792969 14.777344 27.644531 14.796875 27.335938 C 14.800781 27.253906 15.226562 27.015625 15.289062 27.042969 C 15.636719 27.199219 15.183594 26.894531 15.644531 26.796875 C 15.867188 26.75 15.773438 26.28125 16.042969 26.175781 C 16.117188 26.144531 16.191406 25.886719 16.417969 26.132812 C 16.496094 26.21875 16.796875 26.121094 16.625 26.367188 C 16.488281 26.5625 16.734375 26.484375 16.8125 26.59375 C 16.914062 26.742188 16.992188 26.527344 17.234375 26.761719 C 17.488281 27.003906 17.550781 26.789062 17.523438 27.039062 C 17.230469 27.128906 17.234375 27.035156 17.066406 27.066406 C 16.875 27.101562 17.210938 27.460938 17.023438 27.464844 C 16.984375 27.464844 16.625 27.519531 16.625 27.523438 C 16.621094 27.734375 16.855469 27.703125 16.765625 27.84375 C 16.757812 27.859375 16.519531 27.835938 16.816406 28.171875 C 16.902344 28.269531 17.234375 28.59375 16.984375 28.691406 C 16.945312 28.824219 17.390625 28.972656 17.429688 29.109375 C 17.449219 29.113281 17.574219 29.261719 17.472656 29.277344 C 17.429688 29.28125 17.40625 29.402344 16.972656 29.402344 C 16.898438 29.40625 16.859375 29.546875 16.851562 29.558594 C 16.742188 29.671875 16.804688 29.835938 16.734375 29.953125 C 16.683594 30.027344 16.796875 30.070312 16.628906 30.164062 C 16.574219 30.199219 16.6875 30.472656 16.535156 30.566406 C 16.414062 30.632812 16.5 30.433594 16.347656 30.722656 C 16.273438 30.859375 16.195312 30.816406 16.328125 30.976562 C 16.390625 31.046875 16.3125 31.007812 16.332031 31.109375 C 16.386719 31.367188 16.191406 31.253906 16.285156 31.371094 C 16.195312 31.492188 16.367188 31.425781 16.179688 31.5625 C 16.167969 31.574219 16.074219 31.871094 15.992188 31.933594 C 15.886719 32.015625 15.800781 32.101562 15.65625 32.101562 C 15.597656 32.101562 15.605469 32.191406 15.40625 32.199219 C 15.300781 32.203125 15.300781 32.101562 15.246094 31.992188 C 15.207031 31.921875 15.210938 31.863281 15.089844 31.835938 C 15.015625 31.820312 14.949219 31.699219 14.898438 31.816406 C 14.871094 31.890625 14.703125 31.714844 14.628906 31.722656 C 14.511719 31.734375 14.355469 31.816406 14.230469 31.855469 C 14.113281 31.898438 14.148438 31.792969 13.972656 31.953125 C 13.871094 32.042969 13.757812 31.832031 13.824219 31.65625 C 13.835938 31.628906 13.8125 31.585938 13.800781 31.5625 C 13.707031 31.589844 13.753906 31.613281 13.632812 31.613281 C 13.5625 31.613281 13.484375 31.753906 13.347656 31.667969 C 13.210938 31.582031 13.035156 31.808594 12.957031 31.554688 C 12.90625 31.375 13 31.261719 12.816406 31.152344 C 12.746094 31.109375 12.792969 31 12.835938 30.949219 C 12.871094 30.90625 12.832031 30.742188 12.824219 30.738281 C 12.734375 30.628906 12.636719 30.480469 12.492188 30.4375 C 12.425781 30.417969 12.347656 30.191406 12.347656 30.148438 Z M 12.347656 30.148438 " fill-opacity="1" fill-rule="evenodd"/><path fill="#ffbd59" d="M 16.074219 31.925781 C 16.0625 31.933594 16.042969 32.023438 16.046875 32.042969 C 16.078125 32.097656 16.097656 32.101562 16.15625 32.078125 C 16.160156 32.078125 16.203125 32.023438 16.1875 32.003906 C 16.171875 31.988281 16.179688 31.914062 16.230469 31.910156 C 16.304688 31.910156 16.246094 31.898438 16.289062 31.84375 C 16.296875 31.835938 16.3125 31.789062 16.28125 31.773438 C 16.242188 31.753906 16.269531 31.761719 16.226562 31.761719 C 16.214844 31.765625 16.226562 31.71875 16.175781 31.726562 C 16.175781 31.726562 16.117188 31.789062 16.125 31.804688 C 16.121094 31.820312 16.109375 31.863281 16.097656 31.882812 C 16.09375 31.890625 16.097656 31.894531 16.078125 31.917969 Z M 16.074219 31.925781 " fill-opacity="1" fill-rule="evenodd"/><path fill="#ffbd59" d="M 17.972656 30.242188 C 17.957031 30.238281 17.824219 30.09375 17.835938 30.242188 C 17.839844 30.289062 17.71875 30.285156 17.726562 30.417969 C 17.730469 30.492188 17.742188 30.472656 17.738281 30.558594 C 17.738281 30.578125 17.75 30.640625 17.738281 30.65625 C 17.683594 30.707031 17.769531 30.828125 17.71875 30.929688 C 17.679688 31.003906 17.738281 30.976562 17.625 31.105469 C 17.539062 31.199219 17.542969 31.207031 17.535156 31.339844 C 17.53125 31.363281 17.527344 31.363281 17.527344 31.375 C 17.507812 31.414062 17.453125 31.585938 17.53125 31.601562 C 17.632812 31.910156 17.796875 31.695312 17.824219 31.746094 C 17.847656 31.789062 17.871094 31.75 17.875 31.835938 C 17.875 31.84375 17.878906 31.847656 17.886719 31.855469 C 17.898438 31.949219 18.058594 32.09375 17.941406 32.214844 C 17.9375 32.222656 17.9375 32.332031 17.914062 32.382812 C 17.890625 32.445312 17.902344 32.570312 17.886719 32.609375 C 17.847656 32.730469 17.910156 32.679688 17.914062 32.800781 C 17.921875 32.910156 17.976562 32.855469 18.066406 32.90625 C 18.15625 32.960938 18.179688 32.878906 18.300781 32.871094 C 18.398438 32.867188 18.488281 32.867188 18.496094 32.742188 C 18.511719 32.535156 18.304688 32.722656 18.429688 32.429688 C 18.480469 32.300781 18.492188 32.125 18.398438 32.007812 C 18.390625 32 18.445312 31.882812 18.457031 31.855469 C 18.480469 31.8125 18.503906 31.785156 18.5 31.726562 C 18.511719 31.589844 18.496094 31.554688 18.40625 31.460938 C 18.363281 31.417969 18.570312 31.324219 18.585938 31.304688 C 18.605469 31.28125 18.6875 31.289062 18.703125 31.378906 C 18.71875 31.484375 18.828125 31.453125 18.710938 31.597656 C 18.675781 31.644531 18.6875 31.726562 18.734375 31.765625 C 18.800781 31.820312 18.832031 31.886719 18.917969 31.941406 C 19.070312 32.039062 18.953125 32.195312 19.03125 32.285156 C 19.089844 32.355469 18.972656 32.382812 19.179688 32.390625 C 19.207031 32.390625 19.359375 32.5625 19.363281 32.335938 C 19.429688 32.28125 19.351562 32.289062 19.484375 32.261719 C 19.640625 32.222656 19.476562 32.132812 19.8125 32.128906 C 19.871094 32.128906 19.765625 32.082031 19.964844 32.074219 C 20.132812 32.066406 20.042969 31.867188 19.765625 31.886719 C 19.757812 31.886719 19.460938 31.769531 19.460938 31.71875 C 19.453125 31.636719 19.625 31.476562 19.492188 31.390625 C 19.421875 31.347656 19.566406 31.300781 19.285156 31.144531 C 19.242188 31.117188 19.222656 31.019531 19.042969 30.925781 C 18.9375 30.867188 19.066406 30.851562 19.066406 30.84375 C 19.457031 30.742188 19.070312 30.722656 19.398438 30.65625 C 19.464844 30.640625 19.527344 30.542969 19.5625 30.488281 C 19.636719 30.371094 19.601562 30.53125 19.691406 30.289062 C 19.707031 30.246094 19.882812 30.238281 19.953125 30.265625 C 20.113281 30.328125 20.160156 29.992188 19.996094 30.011719 C 19.914062 30.023438 19.835938 29.917969 19.691406 30.046875 C 19.59375 30.136719 19.410156 30.035156 19.242188 30.183594 C 19.113281 30.296875 18.78125 30.007812 18.785156 30.328125 C 18.785156 30.390625 18.621094 30.5625 18.457031 30.375 C 18.332031 30.222656 18.195312 30.265625 18.183594 30.074219 C 18.222656 29.882812 18.167969 29.800781 18.296875 29.636719 C 18.472656 29.417969 18.65625 29.695312 18.871094 29.527344 C 18.914062 29.496094 19.113281 29.558594 19.230469 29.554688 C 19.359375 29.550781 19.601562 29.625 19.6875 29.503906 C 19.695312 29.492188 19.777344 29.46875 19.8125 29.53125 C 19.84375 29.585938 20.148438 29.621094 20.238281 29.589844 C 20.484375 29.496094 20.457031 29.378906 20.65625 29.328125 C 20.871094 29.265625 20.949219 29.082031 20.671875 29.015625 C 20.484375 28.96875 20.414062 29.085938 20.285156 29.167969 C 20.25 29.191406 20.167969 29.328125 20 29.25 C 19.929688 29.222656 19.703125 29.1875 19.621094 29.242188 C 19.566406 29.277344 19.511719 29.214844 19.511719 29.214844 C 19.453125 28.964844 19.074219 29.246094 18.929688 29.09375 C 18.871094 29.027344 18.359375 28.960938 18.402344 29.246094 C 18.414062 29.351562 18.085938 29.433594 18.007812 29.578125 C 17.902344 29.777344 17.839844 29.746094 17.984375 29.945312 C 18 29.976562 17.976562 30.078125 18.046875 30.175781 C 18.097656 30.246094 18.011719 30.242188 17.972656 30.242188 Z M 17.972656 30.242188 " fill-opacity="1" fill-rule="evenodd"/><path fill="#ffbd59" d="M 22.140625 29.101562 C 22.042969 29.046875 22.148438 28.855469 22.136719 28.734375 C 22.132812 28.667969 22.273438 28.566406 22.289062 28.402344 C 22.289062 28.375 22.527344 28.175781 22.425781 28.445312 C 22.3125 28.738281 22.4375 28.480469 22.460938 28.761719 C 22.460938 28.777344 22.375 28.980469 22.371094 28.988281 C 22.261719 29.105469 22.296875 29.261719 22.445312 29.050781 C 22.550781 28.894531 22.453125 29.15625 22.488281 28.949219 C 22.488281 28.941406 22.773438 28.6875 22.832031 28.738281 C 23.082031 28.972656 22.890625 28.96875 22.882812 29.050781 C 22.644531 29.113281 22.621094 29.160156 22.800781 29.28125 C 22.984375 29.40625 22.828125 29.484375 22.671875 29.441406 C 22.4375 29.378906 22.195312 29.460938 22.484375 29.675781 C 22.570312 29.738281 22.46875 29.820312 22.699219 30.019531 C 22.8125 30.117188 22.792969 30.347656 22.554688 30.070312 C 22.46875 29.96875 22.128906 29.785156 22.265625 29.574219 C 22.316406 29.496094 22.089844 29.402344 22.15625 29.304688 C 22.203125 29.253906 22.253906 29.167969 22.140625 29.101562 Z M 22.140625 29.101562 " fill-opacity="1" fill-rule="evenodd"/><path fill="#ffbd59" d="M 21.617188 31.714844 C 21.507812 31.664062 21.40625 31.734375 21.476562 31.496094 C 21.507812 31.410156 21.378906 31.347656 21.6875 31.332031 C 21.824219 31.328125 21.890625 31.328125 22.019531 31.386719 C 22.054688 31.402344 22.1875 31.582031 22.148438 31.597656 C 22.148438 31.597656 22.101562 31.675781 21.996094 31.6875 C 21.988281 31.691406 21.957031 31.820312 21.742188 31.777344 C 21.695312 31.769531 21.667969 31.738281 21.617188 31.714844 Z M 21.617188 31.714844 " fill-opacity="1" fill-rule="evenodd"/><path fill="#ffbd59" d="M 22.578125 31.292969 C 22.464844 31.335938 22.523438 31.324219 22.480469 31.457031 C 22.449219 31.550781 22.628906 31.5625 22.625 31.46875 C 22.625 31.445312 22.683594 31.34375 22.757812 31.4375 C 22.800781 31.496094 22.960938 31.496094 23.019531 31.410156 C 23.050781 31.367188 23.125 31.488281 23.296875 31.46875 C 23.488281 31.449219 23.390625 31.386719 23.519531 31.390625 C 23.570312 31.390625 23.609375 31.488281 23.753906 31.519531 C 23.867188 31.546875 23.734375 31.695312 24.105469 31.644531 C 24.121094 31.644531 24.175781 31.402344 24.035156 31.378906 C 24.035156 31.378906 23.890625 31.277344 23.789062 31.242188 C 23.671875 31.203125 23.71875 31.207031 23.578125 31.199219 C 23.511719 31.195312 23.449219 31.007812 23.234375 31.175781 C 23.21875 31.1875 22.902344 31.136719 22.804688 31.140625 C 22.609375 31.148438 22.710938 31.246094 22.578125 31.292969 Z M 22.578125 31.292969 " fill-opacity="1" fill-rule="evenodd"/><path fill="#ffbd59" d="M 29.410156 30.738281 C 29.460938 30.738281 29.382812 30.542969 29.230469 30.589844 C 29.0625 30.644531 28.625 30.417969 28.425781 30.417969 C 28.40625 30.417969 27.988281 30.25 27.933594 30.191406 C 27.828125 30.085938 27.578125 30.046875 27.492188 30.265625 C 27.445312 30.382812 27.429688 30.339844 27.421875 30.375 C 27.421875 30.378906 27.421875 30.378906 27.433594 30.539062 C 27.4375 30.644531 27.050781 30.554688 27.054688 30.746094 C 27.058594 30.828125 26.804688 30.820312 26.800781 30.972656 C 26.800781 31.070312 26.722656 31.003906 26.664062 31.203125 C 26.640625 31.289062 26.425781 31.304688 26.351562 31.113281 C 26.347656 31.109375 26.152344 30.847656 26.132812 30.84375 C 25.960938 30.835938 26 31.015625 25.894531 30.800781 C 25.84375 30.703125 26.046875 30.609375 25.898438 30.515625 C 25.765625 30.433594 26.007812 30.277344 25.941406 30.226562 C 25.917969 30.214844 25.789062 30.019531 25.808594 29.992188 C 25.960938 29.789062 25.421875 29.859375 25.410156 29.851562 C 25.214844 29.730469 25.261719 29.683594 25.003906 29.6875 C 24.902344 29.6875 24.757812 29.515625 24.640625 29.777344 C 24.578125 29.917969 24.261719 29.777344 24.273438 29.953125 C 24.226562 29.992188 24.144531 29.960938 24.097656 29.953125 C 24.011719 29.929688 23.855469 30.058594 24.042969 30.113281 C 24.085938 30.125 23.980469 30.40625 24.324219 30.367188 C 24.34375 30.367188 24.5625 30.257812 24.5625 30.460938 C 24.566406 30.609375 24.722656 30.625 24.78125 30.703125 C 24.878906 30.828125 25.035156 30.714844 25.152344 30.796875 C 25.207031 30.835938 25.574219 30.578125 25.667969 30.664062 C 25.757812 30.746094 25.632812 30.753906 25.628906 30.925781 C 25.628906 31.050781 25.214844 30.75 25.234375 30.957031 C 25.246094 31.066406 25.023438 31.101562 24.925781 31.011719 C 24.867188 30.953125 24.65625 31.019531 24.921875 31.164062 C 25.078125 31.25 24.855469 31.378906 25.148438 31.371094 C 25.238281 31.367188 25.105469 31.648438 25.113281 31.65625 C 25.214844 31.734375 25.226562 31.917969 25.476562 31.640625 C 25.554688 31.554688 25.332031 31.570312 25.59375 31.378906 C 25.640625 31.347656 25.621094 31.21875 25.675781 31.226562 C 25.746094 31.371094 25.617188 31.496094 25.847656 31.464844 C 25.929688 31.453125 25.914062 31.578125 26.035156 31.554688 C 26.140625 31.445312 26.144531 31.636719 26.265625 31.65625 C 26.453125 31.6875 26.171875 31.867188 26.617188 31.878906 C 26.875 31.886719 26.714844 32.089844 27.148438 32.0625 C 27.605469 32.03125 27.566406 32.191406 27.890625 32.324219 C 27.949219 32.351562 28.292969 32.929688 28.316406 32.988281 C 28.597656 33.441406 28.308594 33.105469 28.355469 33.652344 C 28.371094 33.855469 29.1875 33.746094 29.367188 34.03125 C 29.367188 34.03125 29.554688 34.277344 29.582031 34.273438 Z M 29.410156 30.738281 " fill-opacity="1" fill-rule="evenodd"/><path fill="#ffbd59" d="M 23.066406 32.421875 C 22.964844 32.371094 22.859375 32.445312 22.933594 32.203125 C 22.960938 32.113281 22.832031 32.054688 23.144531 32.039062 C 23.28125 32.035156 23.339844 32.03125 23.472656 32.089844 C 23.507812 32.105469 23.640625 32.289062 23.601562 32.304688 C 23.601562 32.304688 23.554688 32.382812 23.445312 32.394531 C 23.4375 32.398438 23.414062 32.53125 23.195312 32.484375 C 23.152344 32.472656 23.125 32.445312 23.066406 32.421875 Z M 23.066406 32.421875 " fill-opacity="1" fill-rule="evenodd"/><path fill="#ffbd59" d="M 22.308594 32.269531 C 22.257812 32.25 22.203125 32.28125 22.242188 32.164062 C 22.257812 32.117188 22.1875 32.089844 22.347656 32.082031 C 22.414062 32.082031 22.445312 32.078125 22.511719 32.105469 C 22.53125 32.113281 22.597656 32.207031 22.574219 32.214844 C 22.574219 32.214844 22.550781 32.253906 22.5 32.261719 C 22.492188 32.261719 22.480469 32.324219 22.371094 32.304688 C 22.351562 32.296875 22.335938 32.28125 22.308594 32.269531 Z M 22.308594 32.269531 " fill-opacity="1" fill-rule="evenodd"/><path fill="#ffbd59" d="M 24.042969 32.101562 C 23.992188 32.082031 23.941406 32.117188 23.976562 32 C 23.992188 31.953125 23.929688 31.917969 24.082031 31.914062 C 24.148438 31.910156 24.183594 31.910156 24.246094 31.941406 C 24.265625 31.949219 24.332031 32.039062 24.3125 32.046875 C 24.3125 32.046875 24.289062 32.085938 24.234375 32.089844 C 24.226562 32.089844 24.21875 32.160156 24.109375 32.136719 C 24.085938 32.132812 24.070312 32.117188 24.046875 32.101562 Z M 24.042969 32.101562 " fill-opacity="1" fill-rule="evenodd"/></svg>